<svg
      xmlns="http://www.w3.org/2000/svg"
      version="1.1"
      viewBox="0 0 95.223 35.824"
    >
      <g display="inline" transform="translate(-44.544 -26.78)">
        <path
          fill="#fff"
          fillOpacity="1"
          fillRule="nonzero"
          stroke="none"
          strokeWidth="0.035"
          d="M56.41 32.019h-.001l-.597.15c.31-.077.617-.15.882-.214l.027-.006.013-.003c.41-.098.713-.168.76-.179-.358.08-1.051.245-1.084.252zm-.598.15c-.12.03-.24.06-.36.092l-.456.114c.256-.066.537-.137.816-.206zm-.36.092c-.634.164-1.26.336-1.893.536.915-.241 1.77-.495 2.69-.73-.265.063-.53.128-.797.194zm.796-.194c.147-.038.296-.075.446-.112l.04-.01.541-.119c-.342.078-.683.158-1.027.24zm-3.74 1.605h.002l.002-.002h.003l.078-.03.003-.002.008-.003.008-.003.01-.003.002-.001.02-.008.028-.01.003-.002.084-.031.005-.002h.003c.3-.088.596-.172.885-.253-.48.157-.944.325-1.389.507 4.297-1.543 10.866-2.708 15.222-3.138-3.205.473-6.009.95-8.974 1.494 2.292-.404 4.51-.804 6.819-1.093l-.368.067c12.023-1.827 27.062-2.556 35.227-2.812 3.518-.074 7-.09 10.519-.025 5.034.121 9.886.366 14.875 1.076 2.895.458 6.459 1.076 8.963 2.691.363.259.651.502.925.856.203.279.32.509.39.848.06.358.03.629-.066.978-.147.488-.358.86-.644 1.28-2.418 3.242-6.796 5.73-10.281 7.697-.123.077-4.528 2.959-4.528 2.959 1.677-.296 3.506-1.276 5.009-2.035 3.896-1.927 8.364-4.233 11.122-7.676.408-.576.687-1.069.906-1.743.18-.619.23-1.103.133-1.743-.116-.62-.313-1.05-.676-1.564-.392-.52-.777-.865-1.302-1.246-2.816-1.86-6.418-2.482-9.696-2.98-.001.002-.702-.099-.703-.094-4.815-.605-9.548-.779-14.4-.846l-4.554.016c-13.271.043-38.623 1.794-51.386 5.63 1.59-.42 4.258-1.121 5.79-1.296-1.159.225-2.238.452-3.31.696a15.29 15.29 0 011.52-.265 7.487 7.487 0 01-.558.174 67.044 67.044 0 013.356-.643l-1.125.227c.893-.163 1.64-.261 2.098-.252-.575.13-1.168.25-1.765.365 3.379-.613 6.723-1.063 10.178-1.427-5.592.79-12.882 1.759-18.212 3.57zm-.375-.221l-.022.007-.12.051c-.253.113.204-.081.169-.067zm6.138-1.53c.847-.174 1.69-.336 2.53-.489-.848.164-1.705.32-2.53.489zm-.755.39a66.576 66.576 0 014.6-.914c-1.438.288-3.023.573-4.6.914zm7.445-1.152c-1.713.312-8.957 1.661-12.267 2.732 3.204-1.11 7.499-2.007 12.267-2.732zm-12.267 2.732c-.369.119-.69.235-.948.346.304-.118.621-.233.948-.346zm2.302-1.516l-.201.051-.3.084a27.8 27.8 0 01.5-.135zm-.501.135l-.002.001-.004.001zm2.999-.743l.006-.001zm-1.084.252zm1.827-.284a27.06 27.06 0 01-.792.206c-.533.118-1.062.241-1.595.375-.53.122-1.036.238-1.438.339 1.307-.338 2.56-.645 3.825-.92zm-.792.206c-.5.123-1.06.252-1.595.375a38.325 38.325 0 00-3.656 1.112c1.191-.42 4.296-1.273 6.883-1.83-.552.112-1.094.224-1.632.343zm-3.033.714c-.139.035-.266.067-.376.098zm6.056-1.336c-.473.094-.936.186-1.391.279.487-.105.956-.2 1.39-.28"
        ></path>
        <path
          fill="#fff"
          fillOpacity="1"
          fillRule="nonzero"
          stroke="none"
          strokeWidth="0.035"
          d="M122.747 47.912c-.92.425-.406.182.02-.005.467-.121.045.08-.419.281.785-.334 1.565-.676 2.349-1-.598.326-1.419.685-2.243 1.023 1.008-.394 1.86-.706 1.153-.333 1.228-.537 2.445-1.108 3.685-1.614a35.84 35.84 0 01-2.873 1.456c.827-.357 1.6-.673 2.193-.868-.862.462-1.919.89-2.812 1.278.725-.293 1.491-.625 2.224-.895-.044.201-5.474 2.35-6.044 2.568 4.44-1.702 8.552-3.437 12.544-6.05.43-.291.84-.586 1.249-.905 1.235-1.007 2.203-1.933 3.09-3.262.631-.998 1.016-1.842 1.186-3.014.109-.922.057-1.626-.242-2.503-.25-.686-.535-1.194-1.019-1.74-1.654-1.743-2.505-1.744-.973.665.242.509.408.927.537 1.48.128.658.137 1.151.033 1.817-.17.905-.467 1.563-.938 2.353 0 0-.122.205-.124.204-.691 1.095-1.558 1.957-2.52 2.817-3.291 2.884-6.884 4.737-10.82 6.565.659-.284 1.735-.821 2.37-1.043-.77.37-1.585.71-2.37 1.043l-.158.067c.461-.192 1.378-.585 1.378-.585l-.456.2zm-2.087 1.387l.004-.001.008-.003h.001l.004-.002.005-.002.002-.001.001-.001h.002l.006-.003.007-.003.024-.01h.004l.005-.003.008-.003.006-.003.006-.002.01-.004.005-.002.003-.001.006-.003.007-.002.004-.002.003-.002.019-.007.003-.001.003-.002.007-.002.009-.004.003-.001.004-.002.004-.001h.001l.008-.004.004-.001c.99-.404 1.948-.808 2.914-1.218l.65-.284-.252.114.84-.357c-1.241.67-3.193 1.427-4.54 1.96.723-.29 1.642-.7 2.582-1.115-.718.304-1.448.6-2.194.9zm-.324-.24c-.02.005-.02.006-.018.004a99.1 99.1 0 00-.099.042c-.213.09.168-.065.138-.053zm1.489-.762h-.001zm.523-.109a77.94 77.94 0 000 0zm.106.023c-.545.224-1.091.439-1.575.63a150.63 150.63 0 011.575-.63zm-1.575.63l-.534.211a.41.41 0 00.04-.01c.054-.023.238-.098.494-.201"
        ></path>
        <path
          fill="#fff"
          fillOpacity="1"
          fillRule="nonzero"
          stroke="none"
          strokeWidth="0.035"
          d="M123.874 54.048c-.952.445-.423.192.02-.005.473-.128.059.073-.412.281.806-.349 1.6-.703 2.408-1.05-.627.348-1.475.726-2.326 1.081 1.054-.419 1.949-.753 1.198-.36a470.799 470.799 0 003.801-1.734 34.164 34.164 0 01-2.716 1.439c.736-.324 1.43-.615 2.017-.822-.892.496-1.976.951-2.905 1.367.754-.316 1.54-.666 2.3-.963-.053.231-5.474 2.408-6.232 2.703 4.636-1.788 8.83-3.609 12.884-6.524.314-.235.617-.473.919-.723 1.274-1.109 2.238-2.11 3.13-3.548.65-1.112 1.034-2.043 1.217-3.32.178-1.825-.08-3.33-1.173-4.82-1.619-2.106-2.502-2.204-1.049.584.534 1.447.737 2.392.54 3.964-.156.922-.406 1.61-.825 2.448-.047.09-.095.179-.145.267-.723 1.3-1.608 2.273-2.683 3.298-3.263 3.02-6.773 4.904-10.76 6.773.693-.304 1.787-.862 2.452-1.103-.795.394-1.638.751-2.452 1.103l-.164.07c.48-.202 1.428-.617 1.428-.617l-.472.211zm-2.173 1.434h.001l.01-.004.002-.001.004-.002.007-.002.006-.002.005-.003.013-.005h.002l.016-.007.013-.005.01-.004h.001l.01-.005.005-.002.023-.009.013-.005.009-.004.005-.002.018-.007.006-.003h.003l.01-.005h.002l.006-.003.003-.002h.002c.91-.376 1.783-.747 2.66-1.126.432-.196.864-.39 1.282-.574-.167.079-.333.157-.5.234l.861-.378c-1.285.71-3.31 1.512-4.709 2.067a66.055 66.055 0 002.451-1.07c-.668.286-1.348.564-2.045.847zm-.332-.237l-.019.005-.102.043c-.222.094.174-.067.144-.055zm-.342.74l-.036.014zm1.891-1.532h-.001v.001zm.564-.129a82.61 82.61 0 000 0zm-.774.33l-.026.011zm.856-.299c-.586.245-1.173.48-1.691.686.429-.176 1.085-.445 1.69-.686zm-1.691.686l-.494.197a.466.466 0 00.041-.012l.453-.185"
        ></path>
        <path
          fill="#fff"
          fillOpacity="1"
          fillRule="nonzero"
          stroke="none"
          strokeWidth="0.035"
          d="M123.011 61.404l.018.005-.542-.16c.251.078.752.225.767.23l.412.117c.306.089.617.177.936.267-1.038-.283-2.918-.771-3.9-1.214.838.298 1.631.55 2.445.794zm.726.212c.717.201 1.428.392 2.156.57-.894-.252-1.782-.467-2.686-.726-.587-.233-.188-.15.425.01-1.117-.318-2.243-.669-3.281-1.11.402.134.786.26 1.159.38-.767-.26-1.339-.5-1.503-.672.175.049.371.111.576.18-.938-.365-1.85-.796-2.675-1.376a7.351 7.351 0 01-.53-.384c.05.034.55.35.55.35 2.903 1.557 6.121 2.415 9.307 3.172l.009.002.015.003.003.001.01.003h.004l.012.003.004.001.036.008.008.002.024.006.03.006.01.002.008.003.02.004.017.004h.005l.01.003.044.01.02.004h.002l.036.009.01.002.052.012.005.001zm4.178.896c.017.006.078.022.078.022l.206.043c.45.092-.346-.078-.284-.065zm-5.776-1.706a35.724 35.724 0 01-1.556-.557c.523.178 1.106.404 1.556.557zm5.096 1.204c-2.276-.594-4.763-1.156-6.938-2.092.484.164.95.32 1.402.468-1.321-.451-2.494-.944-3.17-1.434 1.299.654 2.21 1 3.6 1.526-.965-.379-1.986-.737-2.887-1.258.017-.008.114.012.274.054a16.012 16.012 0 01-1.391-.756c-.595-.384-1.211-.823-1.542-1.469a1.158 1.158 0 01-.128-.51c.002-.175.036-.302.103-.463.2-.428.508-.73.865-1.031.457-.368.901-.64 1.417-.915.281-.147 1.587-.78 1.873-.817a66.549 66.549 0 003.203-1.16c3.742-1.526 6.912-3.088 9.93-5.808 1.266-1.196 2.173-2.257 3.025-3.778.655-1.232 1.024-2.248 1.23-3.626.23-2.056.034-3.764-.952-5.591-.294-.552-.63-1.096-1.104-1.514-.139-.136-.294-.28-.478-.352a.41.41 0 00-.187-.059c-.12-.009-.132.11-.11.179.009.048.036.095.06.137.056.149.154.317.23.459.008-.002.667 1.549.635 1.56.523 1.772.65 3.06.351 4.913-.24 1.159-.58 2.014-1.152 3.05-.78 1.336-1.589 2.289-2.699 3.365-.13.128-.264.253-.398.377-3.425 3.11-7.743 4.983-12.02 6.593-.013-.021-2.074.922-2.042.968a9.977 9.977 0 00-1.588 1.105c-.508.456-.878.874-1.147 1.51a2.257 2.257 0 00-.163.93c.022.372.104.642.273.974.482.838 1.177 1.34 1.988 1.835 2.097 1.117 4.68 1.95 7.004 2.483l.265.07c-.31-.082-.73-.201-1.13-.317zm-5.536-1.624c.648.212 1.271.409 1.892.595a45.234 45.234 0 01-1.892-.595zm1.892.595c1.423.427 2.832.797 4.488 1.16a84.503 84.503 0 01-4.488-1.16zm-4.075-1.707c1.525.392 8.845 2.756 9.737 2.95-3.023-.665-6.77-1.516-9.737-2.95zm3.697 2.189l.118.035-.113-.033zm1.654.47l.005.001.006.002.005.001h.002l.002.001.002.001h.004l.002.001zm-1.235-.462c.645.169 1.526.423 1.744.484-.57-.158-1.156-.317-1.744-.484zm1.744.484l.028.008.013.004zm-3.866-1.214c.5.161.979.312 1.45.456a38.948 38.948 0 01-1.45-.456zm1.45.456a71.42 71.42 0 004.976 1.325c-.025-.009-.078-.022-.078-.022a108.39 108.39 0 01-4.897-1.303"
        ></path>
        <path
          fill="#fff"
          fillOpacity="1"
          fillRule="nonzero"
          stroke="none"
          strokeWidth="0.035"
          d="M124.412 57.027c-.951.445-.423.192.02-.005.473-.128.06.073-.411.28.805-.348 1.599-.703 2.407-1.05-.627.348-1.475.726-2.326 1.082 1.054-.42 1.949-.753 1.198-.36a475.591 475.591 0 003.802-1.734 34.163 34.163 0 01-2.717 1.438c.736-.323 1.43-.614 2.017-.822-.892.496-1.976.952-2.904 1.367.753-.315 1.539-.666 2.298-.962-.051.23-5.473 2.408-6.231 2.702 4.636-1.788 8.83-3.608 12.884-6.524.314-.234.618-.472.92-.722 1.273-1.11 2.238-2.11 3.13-3.548.65-1.113 1.033-2.043 1.216-3.32.178-1.826-.08-3.33-1.173-4.821-1.618-2.106-2.502-2.203-1.048.584.534 1.447.736 2.392.54 3.964-.156.923-.406 1.61-.826 2.449-.046.09-.095.179-.144.267-.724 1.3-1.608 2.273-2.684 3.297-3.262 3.021-6.773 4.904-10.76 6.773.693-.303 1.788-.861 2.453-1.102-.796.394-1.639.75-2.453 1.102l-.163.07c.479-.201 1.427-.616 1.427-.616l-.472.211zm-2.173 1.434l.002-.001.01-.004h.001l.004-.002.007-.003.005-.002.005-.002.013-.005h.001l.017-.007.013-.006.01-.004h.001l.01-.004.005-.002.022-.01.013-.004.01-.004.005-.002h.001l.017-.008.006-.002.002-.001.01-.005h.003l.006-.003.003-.001h.001v-.001c.91-.375 1.784-.746 2.66-1.125.433-.196.864-.39 1.283-.575-.167.08-.334.158-.501.235l.862-.379c-1.285.71-3.31 1.512-4.71 2.067a65.842 65.842 0 002.452-1.07c-.669.286-1.348.565-2.045.847zm-.331-.237c-.021.005-.022.006-.02.004a20.63 20.63 0 00-.102.044c-.222.093.175-.068.144-.055zm-.343.74l-.036.013zm1.892-1.532h-.002zm.564-.13a82.384 82.384 0 000 0zm-.775.331l-.025.011zm.856-.3c-.585.246-1.173.48-1.69.686.428-.175 1.085-.444 1.69-.685zm-1.69.686l-.495.198a.48.48 0 00.041-.012l.453-.186"
        ></path>
        <path
          fill="#fff"
          fillOpacity="1"
          fillRule="nonzero"
          stroke="none"
          strokeWidth="0.035"
          d="M56.2 42.389a.982.982 0 00.039-.21.313.313 0 00-.054-.167 3.326 3.326 0 00-.19-.262.127.127 0 01-.018-.064c-.004-.02-.004-.046-.004-.076-.152-.367-.38-.623-.683-.777-.3-.153-.641-.166-1.025-.043a25.89 25.89 0 00-1.654.7c-.546.253-1.089.506-1.624.76a1.02 1.02 0 00-.205.132c-.068.06-.136.113-.205.167a.438.438 0 00-.197.29.592.592 0 00.06.35.842.842 0 00.41.372c.186.08.38.114.585.094a.912.912 0 00.531-.227c.133-.136.27-.273.402-.406.133-.134.285-.243.448-.33.163-.087.36-.127.584-.123l-.42.38c-.134.123-.274.25-.422.38.08.01.148.023.212.043.061.016.118.036.175.056l-.023-.04a1.673 1.673 0 00.023.02c-.023.047 0 .06.068.037.069-.02.148-.054.247-.1.095-.043.175-.08.235-.103.065-.024.076-.014.042.026-.235.383-.508.816-.808 1.296a39.9 39.9 0 01-.994 1.502c-.36.52-.744 1.026-1.15 1.519-.406.493-.835.946-1.283 1.352-.448.41-.91.747-1.388 1.006a9.468 9.468 0 01-.274-2.218c-.011-.786.057-1.585.202-2.402.144-.816.356-1.622.644-2.418.285-.793.638-1.545 1.055-2.262.421-.712.9-1.359 1.438-1.938a8.074 8.074 0 011.784-1.452c.091-.05.22-.064.387-.037.17.03.341.08.516.157.175.076.311.163.417.26.069.05.148.086.236.12a.54.54 0 00.273.02.49.49 0 00.266-.16c.015-.02.037-.024.075-.014.035.01.073.02.107.033a4.273 4.273 0 01.41.04l.01-.223c.005-.076-.014-.133-.056-.176a1.248 1.248 0 00-.228-.27 1.225 1.225 0 00-.296-.21 29.467 29.467 0 00-1.142-.346c-.387-.11-.782-.2-1.18-.273a2.022 2.022 0 00-.653-.007 5.843 5.843 0 00-2.539 1.03 8.153 8.153 0 00-1.475 1.375c-2.186 2.564-3.302 5.466-3.347 8.71-.004.55.072 1.083.228 1.599.155.513.413 1.002.774 1.462.296.35.641.603 1.032.753.39.153.823.193 1.29.126.216-.03.429-.05.637-.053a3.21 3.21 0 01.638.053c.25.047.49.034.713-.043.22-.073.425-.193.607-.356.217-.19.422-.383.623-.583.197-.197.39-.397.584-.597.08-.08.156-.17.224-.266.072-.096.14-.193.209-.293a.567.567 0 01.216.017c.038.007.057.013.057.023.023.1.034.193.042.286.007.094.015.184.026.274.042.3.106.592.201.875.095.283.247.553.46.803.117.127.269.23.455.307.182.076.375.123.577.14.204.013.39-.007.561-.067.13-.04.209-.097.247-.177.034-.076.015-.183-.065-.323a2.64 2.64 0 01-.254-.52 3.293 3.293 0 01-.156-.579 5.566 5.566 0 01-.098-1.15c.007-.385.03-.775.068-1.165.038-.386.072-.776.099-1.162.003-.03.03-.057.08-.077.049-.023.098-.043.147-.063-.068.48-.113.959-.136 1.439 0 .313 0 .626.004.939.007.313.026.626.06.94.035.312.099.626.186.938.02.094.046.18.088.257.038.077.125.12.254.123h.022a1.027 1.027 0 01-.212-.383 1.64 1.64 0 01-.06-.406 7.557 7.557 0 010-.41c.09-1.292.235-2.568.436-3.827.2-1.26.463-2.508.793-3.747zm-.295-.2c0 .02-.008.037-.023.047a.12.12 0 00-.023.033c-.011 0-.019-.003-.023-.01-.003-.007-.011-.01-.022-.01a.123.123 0 01.038-.023.223.223 0 00.053-.037zm-8.72 4.064a.585.585 0 00-.011.106c.003.03 0 .054-.012.074a.281.281 0 01-.095.113.831.831 0 01-.11.066.558.558 0 00.065-.103.452.452 0 00.049-.117.262.262 0 00.076-.063.305.305 0 00.038-.076zm-.228.36c.012.013.023.03.034.05.012.023.023.04.035.05.022.033.045.066.064.1.023.032.038.06.05.079a.134.134 0 01-.058.023.14.14 0 00-.056.02.339.339 0 00-.016-.103.997.997 0 00-.03-.1.138.138 0 00-.011-.043.221.221 0 01-.012-.077zm.228 1.625c0 .01 0 .023-.004.043 0 .02-.007.047-.019.077a.471.471 0 00-.038-.074.249.249 0 00-.053-.06 1.337 1.337 0 01-.064-.123.39.39 0 01-.027-.136c0-.07.004-.143.012-.223.007-.077.01-.157.01-.237a11.951 11.951 0 01.206.44c-.012-.003-.023-.007-.034-.007-.012.004-.023.007-.034.017.01.05.022.096.03.14a.591.591 0 01.015.143zm.068.78a.913.913 0 01-.023-.094.178.178 0 00-.022-.067.07.07 0 01.034.01c.011.007.023.01.034.01 0 .03.008.06.019.097.011.033.027.073.05.123-.035-.027-.058-.046-.073-.053-.011-.01-.019-.017-.019-.027zm0-3.428a.1.1 0 00-.011-.05.068.068 0 01-.012-.033v-.137-.183c.027.04.05.073.076.096.023.024.038.037.038.047a.843.843 0 00-.091.26zm.205-1.04v-.04h.023zm3.05 4.85c.012 0 .02.004.02.01.004.004.004.007.004.01-.012 0-.02.004-.02 0-.003 0-.003-.006-.003-.016zM53.4 42.57s0-.004-.004-.01c0-.007-.007-.01-.018-.01.01 0 .018 0 .018.003.004 0 .004.007.004.017zm2.05.94a.131.131 0 00-.073.042.203.203 0 00-.041.057c0-.03.003-.057.01-.077a.199.199 0 00.012-.063c.012 0 .023.003.038.013.012.007.03.017.053.027zm-.615 2.797c-.012.03-.027.057-.042.083a.186.186 0 00-.027.097c-.023-.03-.045-.057-.06-.08a.126.126 0 01-.03-.08c0-.1.01-.203.03-.313.015-.107.037-.217.06-.326 0-.01.012-.017.027-.017.015-.004.03-.004.042-.004v.64zm.045-.96a.395.395 0 00-.019-.103.109.109 0 01-.004-.076c.057-.23.118-.45.186-.666.065-.217.133-.433.201-.653-.045.22-.087.44-.128.663-.042.22-.088.446-.145.676 0 .03-.011.056-.026.08-.02.023-.042.05-.065.08zm-2.504-1.798c.011-.02.03-.04.05-.063a.983.983 0 00.064-.077.36.36 0 01-.084.057.366.366 0 01-.098.043l.026.027c.008.01.023.013.042.013zm.114-.14c.011 0 .022-.01.034-.023.011-.013.023-.027.034-.037h-.023c-.011 0-.019.007-.023.017a.346.346 0 01-.022.043zm3.119 7.634l.023-.02-.012-.01-.011-.01v.04"
        ></path>
        <path
          fill="#fff"
          fillOpacity="1"
          fillRule="nonzero"
          stroke="none"
          strokeWidth="0.035"
          d="M69.52 38.272a.579.579 0 01-.228-.08.426.426 0 01-.16-.2 1.198 1.198 0 00-.546-.68 2.08 2.08 0 00-.888-.26 5.18 5.18 0 00-.717-.01c-.24.01-.478.028-.717.05-.603.1-1.195.237-1.784.41-.584.17-1.165.367-1.745.59a.528.528 0 01-.266.056c-.076-.006-.144-.073-.212-.196-.095-.156-.209-.246-.342-.266a.573.573 0 00-.41.106.594.594 0 00-.163.197c-.042.08-.076.16-.11.243-.045.09-.083.18-.114.27-.034.09-.072.18-.114.27a.382.382 0 01-.163.093c-.068.026-.129.046-.178.067-.011-.044-.026-.09-.042-.14a.538.538 0 01-.026-.14.92.92 0 01.05-.277c.033-.083.06-.163.086-.243.015-.177-.003-.313-.053-.403-.053-.09-.155-.15-.311-.176-.178-.037-.311-.03-.402.016-.095.047-.17.17-.235.363a7.95 7.95 0 00-.3.766 19.47 19.47 0 00-.247.813c-.05.147-.121.276-.22.39a4.635 4.635 0 01-.326.33c-.262.226-.516.46-.763.696a9.005 9.005 0 00-.694.742c-.24.293-.334.577-.285.85.05.273.25.516.603.73a.942.942 0 01.315.282.51.51 0 01.084.3.992.992 0 01-.08.336 2.32 2.32 0 00-.057.26c-.015.09-.034.177-.057.26a80.716 80.716 0 00-.679 3.148 31.171 31.171 0 00-.459 3.267c.011-.02.011-.016.008.004a.564.564 0 00-.008.096c.023.34.205.54.546.6.198.043.35.037.448-.02.099-.057.186-.183.258-.38.023-.01.05-.03.076-.057a.22.22 0 00.06-.083c0 .04.008.077.02.11.015.033.038.07.072.11.038.053.087.11.144.167.053.056.09.09.106.093a1.003 1.003 0 00.433-.26c.03-.06.05-.13.05-.203.003-.073.01-.147.018-.216a42.106 42.106 0 01.364-1.6c.091-.399.19-.799.296-1.195.107-.4.228-.793.365-1.183.03-.16.072-.246.129-.26.053-.013.148.04.28.16.183.13.365.27.55.413.183.144.372.287.566.427.524.38 1.044.75 1.56 1.112.516.367 1.035.726 1.56 1.086.147.114.295.18.443.193.148.017.296-.05.444-.193a.43.43 0 01.14-.073.665.665 0 01.179-.027.597.597 0 00.36-.156c.088-.09.163-.18.235-.28a.666.666 0 01.27-.223c-.023-.05-.042-.097-.065-.137a.285.285 0 00-.095-.103 4.448 4.448 0 00-.413-.287l-.429-.273c-.603-.46-1.195-.916-1.783-1.365a159.82 159.82 0 00-1.768-1.333c-.16-.126-.228-.24-.205-.333.022-.093.136-.19.341-.286.243-.107.493-.213.748-.317.258-.1.5-.216.732-.343.937-.476 1.84-.979 2.717-1.512a21.346 21.346 0 002.474-1.765c.243-.193.47-.4.69-.623.217-.223.414-.457.585-.696.182-.243.277-.477.284-.697a.785.785 0 00-.205-.572c-.14-.163-.349-.28-.626-.35zm-11.566 12.51v-.12-.016-.003c.011 0 .019.003.023.013.003.01.011.027.022.047-.011.01-.022.02-.03.033a.079.079 0 00-.015.046zm.182-1.098l-.011-.01a.642.642 0 00-.012-.01c0-.07.012-.137.03-.2.023-.064.05-.13.084-.2v.02c-.012.06-.023.123-.038.193-.011.067-.03.136-.053.207zm.114-.52v-.043-.057c.011.01.019.02.019.027a.03.03 0 01.003.013.05.05 0 01-.011.03.05.05 0 00-.011.03zm.113-.56a.188.188 0 01-.06-.04c-.02-.016-.03-.03-.03-.04a.251.251 0 00.072-.143.446.446 0 01.034-.146c.015-.047.064-.077.144-.09a.108.108 0 01-.042.036c-.015.007-.026.013-.026.024a2.37 2.37 0 00-.046.2c-.008.063-.023.13-.046.2zm.183-.5a.73.73 0 01-.103-.202.247.247 0 01.023-.194c.03-.063.106-.116.216-.163a3.358 3.358 0 00-.136.56zm.136-.559a23.555 23.555 0 01-.068-.5l.042.14c.015.05.026.097.026.14.012.04.012.08.008.117-.004.036-.008.073-.008.103zm.16-.96h-.091c0-.02 0-.043.003-.07 0-.026.008-.05.02-.07 0 0 .007-.002.018-.01a.383.383 0 00.05-.069v.22zm.637-2.437l-.06.053a.908.908 0 00-.076.086.325.325 0 00-.02-.086.098.098 0 01-.003-.073c.08-.413.174-.83.28-1.25.107-.423.22-.839.335-1.248a.428.428 0 00.022-.104.697.697 0 01.023-.117.29.29 0 01.091-.07.308.308 0 00.091-.07c.023.04.042.07.053.094a.161.161 0 01.015.067 383.242 383.242 0 01-.75 2.718zm9.562-5.117h-.25a.51.51 0 01.05-.126c.018-.033.041-.063.064-.094.022.03.045.06.068.094.023.036.046.076.068.126zm-.546.26a.894.894 0 00.125-.103c.038-.037.08-.077.125-.117-.022.077-.045.15-.064.22-.019.067-.038.14-.05.22-.053-.007-.106-.013-.151-.023-.046-.007-.068-.027-.076-.057-.004-.027.026-.076.09-.14zm-6.853 4.577c.011.01.023.013.034.016.012.004.023.004.034.004v.02a.09.09 0 00-.034-.02.092.092 0 01-.034-.02zm.046-.24v0zm-.342-.54a.433.433 0 01-.16.12c-.06.024-.113.044-.159.06a.818.818 0 00.02-.17c.003-.063.003-.12.003-.17.125-.41.254-.826.383-1.242.13-.416.255-.836.368-1.256.042-.13.11-.24.202-.336.09-.094.223-.173.39-.243.308-.12.611-.25.907-.387.3-.133.596-.273.892-.413.121-.073.231-.146.33-.226.099-.077.209-.14.33-.193.114-.04.24-.07.368-.097.13-.027.258-.053.383-.083H65.763a2.946 2.946 0 00.432-.14.106.106 0 00.054-.057c.015-.023.026-.053.037-.083a1.453 1.453 0 00-.098-.027.297.297 0 00-.084-.013c-.523.14-1.058.273-1.597.406-.539.134-1.078.263-1.613.394a.524.524 0 00-.095.073 1.179 1.179 0 01-.11.086h-.136c-.012 0-.027 0-.05.004.023-.004.038-.004.05-.004a.116.116 0 01.076-.006c.026.003.049.003.06.006-.003-.1.02-.176.072-.226a.46.46 0 01.19-.113.988.988 0 01.194-.04c.402-.137.804-.27 1.203-.407.402-.133.808-.253 1.221-.36.41-.106.831-.183 1.264-.233.163-.026.33-.033.5-.016.175.013.342.033.502.056.095.007.148.03.16.07.014.037-.024.1-.115.19a.855.855 0 01-.216.193.743.743 0 01-.285.107c-.33.09-.66.183-.994.283-.33.097-.668.197-1.01.296a.514.514 0 00-.17.127c-.057.06-.114.12-.17.173a41.143 41.143 0 012.3-.6.37.37 0 01.132-.006c.045.003.083.003.117.006a.47.47 0 01-.05.117.701.701 0 01-.064.103c-.16.14-.315.284-.47.424a5.208 5.208 0 01-.486.396c-.865.58-1.73 1.162-2.592 1.742-.865.583-1.722 1.152-2.576 1.715zm3.802-.3zm-.023.26h.023zm.592-.32h.023l-.068-.12.068.12h-.023zm3.985-3.357c-.16.266-.357.516-.589.743-.23.223-.489.436-.778.636l-.963.7c-.323.236-.653.47-.995.699a.438.438 0 01-.144.083c-.05.02-.106.037-.174.057l.683-.66c.307-.27.615-.54.918-.809.307-.27.607-.54.903-.81.05-.046.095-.096.137-.153a.29.29 0 00.06-.17c.004-.056-.034-.116-.106-.176.035-.01.069-.02.1-.033a.268.268 0 00.082-.047l-.022-.02c.045-.06.087-.12.121-.18.038-.06.072-.12.106-.18v.02l.02-.016.003-.004v-.016-.004c.034-.07.042-.126.023-.166-.023-.043-.083-.073-.182-.093l.239-.127a.57.57 0 01.235-.073c.08-.004.163.03.254.1.129.103.194.216.186.343a.705.705 0 01-.117.356zm-2.437-1.339a.647.647 0 01-.11-.01.591.591 0 00-.094-.01.427.427 0 00-.122.043 1.05 1.05 0 00-.106.057c.023.01.042.017.057.017a.299.299 0 00.057.003c.057-.02.114-.04.167-.057.057-.02.106-.033.151-.043zm-2.845 1.319l.022-.02-.022-.02zm.387-.12h.205c0-.01 0-.016.003-.02 0-.003.008-.01.02-.02-.012 0-.02.003-.023.01-.004.007-.012.01-.023.01a.467.467 0 00-.099.01.44.44 0 01-.083.01zm4.075.18h-.068l.011.01.011.01.023-.01c.012-.007.02-.01.023-.01"
        ></path>
        <path
          fill="#fff"
          fillOpacity="1"
          fillRule="nonzero"
          stroke="none"
          strokeWidth="0.035"
          d="M74.187 49.384h-.046c.023.18.042.36.053.54.015.18.027.359.038.539a.852.852 0 00.285.493c.148.13.319.206.516.236.197.034.394 0 .588-.09.045-.01.08-.03.103-.053.022-.023.033-.047.033-.067.027-.153.073-.296.137-.436.065-.14.118-.28.16-.426a.922.922 0 000-.477 1.49 1.49 0 01-.092-.54c.004-.179.02-.359.046-.539a178.834 178.834 0 01.683-4.876c.099-.51.216-1.016.357-1.516.14-.503.262-1.002.371-1.502.046-.16.069-.283.061-.373a.245.245 0 00-.136-.203 1.141 1.141 0 00-.38-.103 1.593 1.593 0 01-.607-.217 3.733 3.733 0 01-.509-.363 1.817 1.817 0 00-.633-.36 1.21 1.21 0 00-.687 0c-.421.1-.82.247-1.188.437a4.528 4.528 0 00-1.02.722c-.247.23-.49.473-.729.723a34.04 34.04 0 01-.728.736c-.186.207-.38.407-.585.6-.205.193-.402.393-.6.6-.06.05-.117.106-.178.17a.738.738 0 00-.14.23.262.262 0 000 .132c.011.057.034.09.068.107.148.107.323.167.52.183.197.02.387-.003.577-.063.19-.06.349-.153.474-.28.216-.213.429-.426.645-.646.213-.217.44-.42.676-.613.38-.3.766-.59 1.168-.876.4-.283.8-.563 1.2-.842.136-.09.242-.117.315-.08.072.036.106.13.094.28-.102.616-.205 1.228-.303 1.834a97.403 97.403 0 00-.289 1.822c-.022.087-.068.144-.129.164a.49.49 0 01-.235.016c-.05-.006-.106-.016-.17-.026a.384.384 0 01-.171-.073 3.71 3.71 0 00-1.131-.257 7.767 7.767 0 00-1.146-.003 4.59 4.59 0 00-1.571.372c-.486.21-.896.52-1.23.927-.511.703-.853 1.435-1.028 2.201a5.657 5.657 0 00-.019 2.355c.03.197.107.377.228.543.121.17.288.307.5.417.213.11.471.176.775.2.364.02.71.01 1.036-.037.326-.05.634-.14.918-.28.28-.136.543-.333.778-.583.296-.343.596-.683.903-1.026.304-.34.61-.673.918-.992a.419.419 0 01.122-.117c.045-.026.095-.056.152-.083.022.05.042.1.052.143a.488.488 0 01.016.117c.023.2.045.396.064.59.023.192.038.389.05.589zm.569-9.973h.114c.01 0 .019.007.022.023a.099.099 0 00.023.037 1.11 1.11 0 01-.091-.03 1.45 1.45 0 00-.091-.03.227.227 0 00-.034.04.209.209 0 01-.034.04v.02a.197.197 0 01.038-.05.613.613 0 01.053-.05zm-4.349 9.693a.634.634 0 00-.041-.087.185.185 0 01-.027-.073c.072-.37.16-.733.262-1.096.098-.366.231-.716.394-1.059.168-.34.38-.663.642-.963.14-.14.296-.26.466-.366.175-.103.354-.193.536-.273a.513.513 0 01.356-.037c.14.027.273.08.402.16.133.08.236.173.315.276.076.104.107.204.088.3a.394.394 0 01-.05.127.93.93 0 01-.087.113c-.512.47-1.02.946-1.525 1.43-.505.479-1.014.955-1.526 1.428a.4.4 0 01-.087.053.993.993 0 00-.118.067zm-.5-.2l-.046.073a.42.42 0 00-.046.107.228.228 0 00-.023-.087.121.121 0 01-.022-.073c.011-.04.022-.08.034-.116a.482.482 0 01.034-.084c.023.04.046.1.068.18zm-.092.48l.023.04h-.023z"
        ></path>
        <path
          fill="#ff3333"
          fillOpacity="1"
          fillRule="nonzero"
          stroke="none"
          strokeWidth="0.035"
          d="M91.74 36.433a1.052 1.052 0 00-.444-.4 1.745 1.745 0 00-1.301-.077 1.1 1.1 0 00-.509.357 43.202 43.202 0 00-2.577 3.474 32.454 32.454 0 00-2.136 3.701c-.068.17-.148.34-.231.506-.087.17-.179.333-.27.493a.107.107 0 01-.034.07c-.019.017-.03.02-.034.01a.204.204 0 01-.087-.053.307.307 0 01-.05-.067.23.23 0 01-.041-.103c-.004-.036-.004-.077-.004-.116a81.92 81.92 0 00-.091-3.348 41.825 41.825 0 00-.296-3.348.63.63 0 00-.137-.32.726.726 0 00-.243-.18 3.42 3.42 0 00-.303-.119 1.177 1.177 0 00-.273-.1.476.476 0 00-.281.007.48.48 0 00-.243.233.31.31 0 01-.121.136.168.168 0 01-.16 0c-.053-.026-.106-.093-.151-.196-.057-.147-.122-.22-.198-.22-.076.003-.167.07-.28.2a.864.864 0 01-.035.097c-.011.023-.023.043-.034.063a33.184 33.184 0 00-2.512 5.212 28.85 28.85 0 00-1.472 5.5 8.68 8.68 0 00-.114.866c-.02.29-.034.573-.046.853a.637.637 0 00.069.306c.05.1.106.177.178.233.068.057.13.07.186.04.213-.096.406-.13.584-.096.175.03.353.103.532.216h.136c.247-.006.448-.073.596-.197.148-.12.262-.316.338-.582.144-.573.288-1.143.429-1.716.136-.57.292-1.132.459-1.682.14-.55.292-1.089.462-1.622.171-.536.342-1.066.517-1.595a.49.49 0 01.09-.123.914.914 0 00.092-.097c.015.04.03.083.053.126a.341.341 0 01.038.113c.023.23.042.464.06.7.02.237.042.47.076.7.08.363.156.722.228 1.085.072.36.148.713.228 1.053.06.143.14.273.243.393.102.123.208.223.326.307.117.076.231.093.341.046a.55.55 0 00.274-.266c.102.04.208.08.322.116.11.04.224.073.338.104.015.006.034.006.057-.007a.182.182 0 00.057-.034c.106-.106.212-.203.322-.296.107-.093.209-.193.304-.3.098-.103.186-.226.262-.363a32.741 32.741 0 013.961-6.715c.057-.06.11-.12.16-.183.049-.067.102-.137.159-.217a.126.126 0 01.05-.026.136.136 0 01.064-.014c.004.02.015.04.034.06.019.02.03.04.034.06-.034.09-.057.18-.076.27-.019.09-.038.18-.06.27-.084.27-.171.54-.266.806a5.93 5.93 0 00-.213.793 42.625 42.625 0 00-.774 6.935c0 .24-.004.47-.008.696-.003.226 0 .453.008.683.012.19.02.376.03.56.016.182.042.369.084.559.05.336.122.576.216.723.095.146.243.223.452.226.205.003.497-.04.88-.13.14-.04.239-.1.296-.183.06-.08.069-.187.023-.317-.076-.529-.114-1.069-.114-1.615a16.96 16.96 0 01.091-1.642c.11-1.09.224-2.175.342-3.261.117-1.086.254-2.175.41-3.274.094-.7.212-1.399.348-2.102.14-.7.274-1.406.403-2.115.011-.09.015-.183.015-.277a1.139 1.139 0 00-.038-.263zm-8.355 10.073a.275.275 0 00-.084-.084c-.034-.02-.05-.036-.053-.056l-.076-.38a3.543 3.543 0 01-.06-.38c-.092-.819-.183-1.642-.266-2.464-.088-.823-.167-1.643-.235-2.452a2.01 2.01 0 01.041-.503c.038-.163.069-.316.095-.456a.128.128 0 01.053-.097l.107-.083c.01.03.026.06.041.093.015.03.027.067.027.107V42.109c.087.7.166 1.37.235 2.015.068.646.144 1.273.22 1.882 0 .07.004.127.011.177a.891.891 0 01.012.143c0 .02-.012.047-.027.076a.578.578 0 00-.041.104"
        ></path>
        <path
          fill="#ff3333"
          fillOpacity="1"
          fillRule="nonzero"
          stroke="none"
          strokeWidth="0.035"
          d="M91.717 49.823c.038.23.08.48.122.753.045.277.09.56.144.856.05.3.106.593.167.89.06.27.186.47.372.606.19.136.42.213.698.233.17.016.341-.004.512-.064a1.42 1.42 0 00.463-.256c.137-.11.235-.236.3-.38.133-.3.254-.599.357-.896.102-.3.205-.592.303-.882.33-1.046.672-2.092 1.017-3.135a76.512 76.512 0 011.108-3.1 45.13 45.13 0 011.29-3.039c.201-.432.41-.869.623-1.305.212-.433.44-.863.69-1.282.25-.417.535-.823.85-1.21.065-.08.087-.146.065-.196-.023-.054-.073-.093-.156-.123a7.821 7.821 0 01-.49-.197 3.606 3.606 0 00-.49-.163 2.633 2.633 0 00-.595-.08.6.6 0 00-.379.127 2.055 2.055 0 00-.368.413c-.179.24-.357.483-.531.722-.171.243-.361.473-.562.696a50.76 50.76 0 00-1.954 2.295 30.23 30.23 0 00-1.734 2.402c-.046.05-.088.097-.122.137a.976.976 0 00-.083.123.132.132 0 01-.053.046c-.023.014-.035.024-.038.034a.246.246 0 00-.053-.077.124.124 0 01-.038-.063c.045-.34.094-.68.152-1.016.053-.34.11-.673.166-1.003a124.265 124.265 0 01.82-3.877.917.917 0 00.007-.23.49.49 0 00-.075-.23.765.765 0 00-.368-.216 1.581 1.581 0 00-.433-.047 16.2 16.2 0 00-.429.024.431.431 0 00-.25.083.403.403 0 00-.114.18c-.027.07-.05.14-.068.216-.114.38-.217.763-.315 1.146-.1.383-.198.763-.3 1.133-.148.552-.28 1.109-.402 1.665a18.16 18.16 0 00-.289 1.679 12.003 12.003 0 00-.083 1.692c0 .12.011.24.03.36.016.12.038.24.061.36a.846.846 0 00.224.363c.106.1.243.153.413.156.22-.007.44-.013.668-.027.228-.01.444-.046.653-.113a.654.654 0 00.208-.163c.062-.073.122-.153.175-.24.057-.09.11-.176.163-.257.285-.399.573-.802.862-1.212.288-.406.573-.816.846-1.226a.944.944 0 00.095-.07.447.447 0 01.132-.07c-.01.03-.015.064-.01.1 0 .037-.005.07-.012.1-.034.1-.065.19-.088.273l-.072.227c-.258.6-.485 1.21-.679 1.825a31.78 31.78 0 00-.527 1.872c-.114.47-.228.94-.35 1.41-.117.469-.242.939-.379 1.408a.768.768 0 01-.05.13c-.018.047-.041.09-.064.13a.568.568 0 01-.087-.143.95.95 0 01-.05-.157 1.797 1.797 0 01-.049-.243 1.185 1.185 0 01.004-.256c.023-.28.046-.56.06-.843.02-.28.031-.566.031-.856a.874.874 0 00.016-.18.88.88 0 00-.016-.18.696.696 0 00-.376-.136 1.356 1.356 0 00-.459.043 1.135 1.135 0 00-.39.19.453.453 0 00-.186.303c-.053.293-.095.603-.126.93-.03.322-.072.692-.124 1.108zm4.622-9.413a.953.953 0 01.045-.123.652.652 0 00.046-.137.598.598 0 00.182-.14c.034-.02.072-.04.11-.063a.285.285 0 00.095-.076c0-.02 0-.037-.004-.047 0-.01-.007-.013-.019-.013v-.017-.003c0 .01.004.023.016.04.007.016.019.03.03.04l-.205.18a.54.54 0 01-.091.056 1.23 1.23 0 01-.091.043 1.726 1.726 0 01-.065.144.508.508 0 00-.05.116c0 .01-.003.017-.01.017l-.012.003.012-.01a.356.356 0 01.01-.01"
        ></path>
        <path
          fill="#fff"
          fillOpacity="1"
          fillRule="nonzero"
          stroke="none"
          strokeWidth="0.035"
          d="M101.78 47.685v.06c0-.01.004-.017.012-.017.007-.003.011-.003.011-.003-.011-.01-.02-.02-.02-.027l-.003-.013zm9.767-10.652a3.897 3.897 0 00-.08-.22 3.696 3.696 0 01-.079-.22c-.09-.246-.224-.416-.402-.513-.179-.093-.406-.13-.69-.106-1.094.076-2.19.14-3.287.19-1.096.05-2.19.113-3.27.19-.832.076-1.652.186-2.46.329-.808.143-1.605.333-2.39.57-.213.063-.372.14-.482.223a.504.504 0 00-.197.32c-.02.126.004.283.064.476.038.11.084.22.14.326.057.11.107.213.156.313.08.127.175.21.285.25.11.037.228.04.353.01.478-.143.96-.26 1.445-.343.486-.083.972-.156 1.457-.213.486-.06.968-.12 1.446-.183a.49.49 0 01.114.013c.042.007.08.017.114.027-.034.023-.072.05-.114.083a.23.23 0 01-.114.057c-.353.06-.702.11-1.043.156-.346.047-.687.093-1.029.144a.311.311 0 00-.159.056c-.05.037-.103.07-.16.103.388-.03.763-.063 1.131-.1a64.1 64.1 0 011.101-.1.589.589 0 01.243.034c.064.027.083.09.053.186-.08.23-.163.457-.254.677a38.34 38.34 0 01-.27.662h-.136s.004 0 .01.004c.009 0 .012.006.012.016v-.003-.017h.114a1.242 1.242 0 01-.09.3.838.838 0 00-.012-.14.773.773 0 01-.012-.14c-.129.347-.262.686-.394 1.023-.133.333-.24.68-.311 1.036a51.59 51.59 0 00-.35 2.328c-.095.78-.2 1.555-.31 2.328a.486.486 0 00.01.253l.08.267c0-.08.004-.16.012-.24.007-.08.011-.16.011-.24.011.02.027.03.042.033.015.007.026.007.026.007a1.852 1.852 0 00-.068.48v.04c0-.01 0-.017-.004-.017 0-.003-.007-.003-.019-.003 0 .01-.004.023-.015.04a.11.11 0 01-.03.04.98.98 0 00-.02.183c-.003.06-.003.126-.003.197 0-.05.004-.097.011-.14a.875.875 0 00.011-.14 4.345 4.345 0 01.046.52 17.12 17.12 0 01-.027.749c-.015.253-.019.51-.007.763.012.256.053.513.125.765.057.197.148.35.274.457a.942.942 0 00.478.203c.129.017.27.017.425-.007.151-.02.3-.053.44-.093.03-.023.049-.063.057-.123.011-.057.015-.123.015-.197-.004-.07-.004-.14-.004-.2.019-.349.038-.692.053-1.028.02-.34.054-.683.107-1.03.178-1.092.402-2.175.671-3.25.27-1.073.561-2.143.88-3.208.323-1.066.646-2.129.975-3.195a.56.56 0 01.21-.306.753.753 0 01.383-.113c.614-.034 1.23-.074 1.844-.127l1.844-.153a.217.217 0 00.099-.034c.034-.02.06-.033.083-.046a.473.473 0 01-.09-.01.558.558 0 00-.092-.01c-.513.01-1.013.023-1.51.043-.498.017-.995.037-1.495.057a16.424 16.424 0 01-1.32.06.253.253 0 01-.088-.034.513.513 0 00-.118-.046.228.228 0 00.095-.047.123.123 0 01.064-.033c.126-.01.25-.013.372-.01.126 0 .243-.003.357-.01.672-.06 1.332-.113 1.989-.16.656-.05 1.312-.103 1.973-.16.246-.01.432-.043.553-.1a.334.334 0 00.205-.266 1.328 1.328 0 00-.052-.513zm-9.539 9.812s-.004.004-.011.007c-.008.004-.012 0-.012-.007-.011-.003-.019-.01-.023-.023a.078.078 0 00-.022-.037.112.112 0 00.053-.01.092.092 0 01.038-.01.07.07 0 01-.012.034c-.008.01-.011.027-.011.046zm0-.44a.222.222 0 01-.03-.03c-.012-.009-.015-.02-.015-.03 0-.009.004-.019.01-.026l.012-.013c.012.01.02.02.023.027a.026.026 0 00.023.013c-.012.01-.02.02-.02.03-.003.01-.003.02-.003.03zm.956-5.195l-.023-.06h.069zm-2.322-2.139c.05.01.098.017.156.02.056.004.102.01.14.02.046 0 .08-.006.11-.013.03-.007.06-.017.095-.027a.39.39 0 01-.091-.01.371.371 0 00-.091-.01c-.046 0-.1.004-.16.01-.057.007-.11.01-.159.01zm.501 0v.02c0-.01.004-.017.011-.017.007-.003.012-.003.012-.003h-.023zm.455 9.234c0 .02.004.03.011.033.008.006.012.006.012.006a.308.308 0 01.045-.06.334.334 0 00.046-.06v-.01-.01.02a.464.464 0 01-.057.04 1.63 1.63 0 01-.057.04"
        ></path>
        <path
          fill="#fff"
          fillOpacity="1"
          fillRule="nonzero"
          stroke="none"
          strokeWidth="0.035"
          d="M107.677 44.967c0-.08.004-.16.015-.24a5.97 5.97 0 01.065-.46c.011-.076.022-.15.034-.22a.176.176 0 01.072-.016c.023-.003.053-.003.087-.003-.011-.01-.026-.023-.045-.044a.238.238 0 01-.046-.056.309.309 0 01-.068.12l.057.16a.212.212 0 01.008.143c-.016.043-.069.076-.156.096-.011.09-.02.177-.023.257a2.635 2.635 0 01-.023.243c-.034.15-.068.31-.098.473-.035.163-.061.327-.084.486a5.748 5.748 0 00-.057 1.572c.053.517.17 1.027.353 1.526.095.253.228.466.399.64.17.17.364.302.58.403.216.096.44.163.668.196.228.033.444.04.653.02.44-.043.846-.15 1.21-.32a4.235 4.235 0 001.021-.68c.357-.319.656-.665.907-1.039.25-.372.459-.765.63-1.179.17-.413.31-.839.42-1.279.134-.41.18-.83.141-1.252a4.408 4.408 0 00-.322-1.266c-.107-.336-.296-.576-.566-.72a2.151 2.151 0 00-.96-.24c-.148 0-.239.03-.277.09-.034.06-.019.15.05.27.28.61.417 1.22.413 1.83a4.869 4.869 0 01-.39 1.828c-.133.343-.285.676-.449 1.009-.163.33-.36.646-.584.946-.224.3-.497.577-.812.823-.28.22-.497.36-.645.416-.148.057-.262.024-.35-.093-.086-.116-.181-.323-.28-.623a1.348 1.348 0 01-.045-.23 3.074 3.074 0 00-.046-.23c-.068-.4-.083-.8-.046-1.198.035-.4.11-.8.228-1.2a10.52 10.52 0 011.108-2.535 8.636 8.636 0 011.875-2.161c.129-.117.265-.22.413-.313a1.23 1.23 0 01.478-.17c.175-.02.361.013.566.103a.28.28 0 00.08.02c.03.003.056.01.08.02a.524.524 0 00.348-.09c.087-.066.168-.157.243-.27.061-.12.065-.216.004-.29a.572.572 0 00-.254-.17 10.974 10.974 0 00-.611-.333 2.596 2.596 0 00-.664-.226 3.572 3.572 0 00-1.138-.047c-.365.047-.71.147-1.04.293-.33.147-.645.33-.941.553-.55.4-1.025.843-1.42 1.326-.394.48-.724.996-.994 1.545-.27.55-.49 1.127-.66 1.726-.152.5-.25 1.003-.292 1.512a4.53 4.53 0 00.133 1.526c.042.173.094.34.152.503.056.16.14.31.242.446.103.14.247.263.425.37l-.022-.02a6.42 6.42 0 00-.053-.457 3.222 3.222 0 00-.107-.443 6.473 6.473 0 01-.106-1.588c.034-.52.129-1.03.288-1.53a.393.393 0 01.1-.146c.037-.037.083-.076.128-.113"
        ></path>
        <path
          fill="#fff"
          fillOpacity="1"
          fillRule="nonzero"
          stroke="none"
          strokeWidth="0.035"
          d="M115.873 46.466c.012 0 .023 0 .034.003.012 0 .023.007.034.017.008.07.016.143.016.22 0 .076.01.15.03.22.015.05.041.096.087.136l.118.123c.05-.04.095-.083.14-.13a.374.374 0 00.087-.13c.054-.156.096-.306.122-.446.023-.14.053-.287.083-.433.035-.09.065-.17.091-.247.027-.073.058-.142.092-.213-.008.08-.012.164-.012.25.004.087 0 .17-.011.25-.027.14-.05.283-.069.43a1.888 1.888 0 00-.007.44c.016.146.065.29.144.43a.6.6 0 00.483.312c.094.014.193.023.292.027.167-.004.277-.043.337-.12a.55.55 0 00.095-.3 7.39 7.39 0 01.296-1.212c.137-.397.285-.79.448-1.18.16-.392.315-.785.463-1.185.284-.76.57-1.522.85-2.292.277-.766.55-1.535.812-2.305.098-.276.137-.51.11-.696a.763.763 0 00-.288-.486c-.163-.134-.399-.26-.71-.377a.483.483 0 00-.28-.023c-.096.02-.183.047-.27.077a.676.676 0 01-.262.043.403.403 0 01-.258-.137c-.011 0-.03 0-.057.004a.1.1 0 00-.057.017c-.034.03-.072.06-.106.093a.238.238 0 00-.076.106 3.01 3.01 0 00-.133.26 3.46 3.46 0 00-.117.26c-.365.78-.687 1.566-.972 2.358a25.352 25.352 0 00-.736 2.419c-.144.58-.284 1.149-.421 1.715a73.39 73.39 0 01-.421 1.702zm2.186-4.716v.1a.225.225 0 01-.034-.04.2.2 0 00-.035-.04.082.082 0 01.038-.02.473.473 0 00.053-.02c-.011 0-.018-.004-.022-.01-.004-.007-.012-.01-.023-.01.011.01.019.016.019.02.004.003.004.01.004.02zm-1.161 3.077l.053.074a.161.161 0 01.038.086.148.148 0 01-.034.063.134.134 0 00-.035.077.23.23 0 00-.011-.077.122.122 0 01-.011-.043.258.258 0 00.018-.09c.004-.03.004-.06.004-.09.08-.14.156-.28.224-.42.072-.14.14-.28.209-.42a.141.141 0 01-.019-.07c-.004-.026-.004-.05-.004-.07v-.119c0 .02.004.037.012.05.008.013.01.03.01.05v.14c-.033.11-.064.223-.094.336-.03.113-.064.223-.11.323a.757.757 0 01-.25.2zm.888-2.578c.014.01.026.02.037.03.012.01.004.02-.015.03 0 .01-.004.017-.015.02a.133.133 0 00-.03.02c0-.01-.004-.02-.007-.03-.004-.01-.004-.02.007-.03 0-.01.004-.017.011-.02.008-.003.012-.01.012-.02zm-.114.46l-.023.04-.023-.04zm-.683 8.313c.129.057.235.08.326.07a.376.376 0 00.22-.1.97.97 0 00.16-.21c.034-.073.072-.15.113-.23.042-.082.08-.159.114-.229.068-.216.072-.383.004-.506-.064-.12-.212-.217-.436-.293-.239-.09-.482-.177-.732-.257-.247-.083-.497-.163-.748-.243a.572.572 0 00-.3-.04.594.594 0 00-.273.103.316.316 0 00-.133.217c-.022.23-.034.46-.03.683 0 .226.02.446.053.656.027.073.087.15.178.23.095.08.194.136.3.17.16.026.319.043.482.043.16 0 .327 0 .497-.004a.334.334 0 00.122-.03.307.307 0 01.083-.03"
        ></path>
        <g transform="matrix(.03531 0 0 -.03524 29.011 267.961)">
          <path
            fill="none"
            stroke="#fff"
            strokeDasharray="none"
            strokeLinecap="round"
            strokeLinejoin="round"
            strokeMiterlimit="22.926"
            strokeOpacity="1"
            strokeWidth="42.564"
            d="M2716.04 6246.52c24.51 21.07 54.03 29.96 74.06 24.09v378.28h21.24V6262.2c0-38.09.94-53.4-32.19-81.9-31.34-26.95-70.86-33.97-88.29-15.68-17.43 18.28-6.15 54.95 25.18 81.9z"
          ></path>
        </g>
        <path
          fill="#ff3333"
          fillOpacity="1"
          fillRule="evenodd"
          stroke="none"
          strokeWidth="0.035"
          d="M124.925 47.823c.865-.743 1.908-1.056 2.615-.85V33.643h.75V47.27c0 1.342.033 1.882-1.137 2.886-1.106.95-2.502 1.198-3.117.553-.616-.644-.217-1.937.889-2.886"
          display="inline"
        ></path>
      </g>
    </svg>